Format : MPEG-4
Format profile : Base Media / Version 2
Codec ID : mp42
File size : 336 MiB
Duration : 1h 44mn
Overall bit rate : 449 Kbps
Encoded date : UTC 2010-10-07 13:48:55
Tagged date : UTC 2010-10-07 13:49:26
Writing application : mp4creator 1.6.1d

Video
ID : 1
Format : AVC
Format/Info : Advanced Video Codec
Format profile : Baseline@L1.3
Format settings, CABAC : No
Format settings, ReFrames : 1 frame
Codec ID : avc1
Codec ID/Info : Advanced Video Coding
Duration : 1h 44mn
Bit rate mode : Variable
Bit rate : 384 Kbps
Width : 480 pixels
Height : 272 pixels
Display aspect ratio : 16:9
Original display aspect ratio : 16:9
Frame rate mode : Constant
Frame rate : 24.000 fps
Resolution : 24 bits
Colorimetry : 4:2:0
Scan type : Progressive
Bits/(Pixel*Frame) : 0.123
Stream size : 288 MiB (86%)
Encoded date : UTC 2010-10-07 13:48:55
Tagged date : UTC 2010-10-07 13:49:21

Audio
ID : 2
Format : AAC
Format/Info : Advanced Audio Codec
Format version : Version 4
Format profile : LC
Format settings, SBR : Yes
Format settings, PS : No
Codec ID : 40
Duration : 1h 44mn
Bit rate mode : Variable
Bit rate : 62.7 Kbps
Maximum bit rate : 111 Kbps
Channel(s) : 2 channels
Channel positions : L R
Sampling rate : 48.0 KHz
Resolution : 16 bits
Stream size : 46.9 MiB (14%)
Encoded date : UTC 2010-10-07 13:49:22
Tagged date : UTC 2010-10-07 13:49:26

Legend of the Fist: The Return of Chen Zhen is set in Shanghai before the Second Sino-Japanese War, seven years after the apparent death of Chen Zhen, who was shot after avenging his teacher (Huo Yuanjia) in Fist of Fury. A mysterious stranger arrives from overseas and befriends a local businessman and owner of a prominent nightclub frequented by foreign dignitaries. That man is Chen Zhen in disguise, who is part of the local resistance. Disguising himself as a masked fighter(based on the Green Hornet sidekick Kato) by night, Chen foils the plans of the Japanese to assassinate the son of a local Warlord(General Zeng) who has been collaborating with the Japanese and place the blame on a rival Warlord(General Zhuo), thereby causing civil war and aiding the subsequent Japanese invasion.
 
http://www.imdb.com/title/tt1456661/

screen shots
 
http://img687.imageshack.us/img687/3310/legendofthefisth264vice.jpg 
http://img840.imageshack.us/img840/3310/legendofthefisth264vice.jpg 
http://img338.imageshack.us/img338/3310/legendofthefisth264vice.jpg 
http://img708.imageshack.us/img708/3310/legendofthefisth264vice.jpg
 
http://img839.imageshack.us/img839/3310/legendofthefisth264vice.jpg